# xmcd
#
# Track frame offsets: 
#        150
#        2518
#        12891
#        13641
#        20913
#        25319
#        38544
#        52193
#        60293
#        66065
#        77032
#        85026
#        90899
#        101277
#        108187
#        113626
#        116931
#        127227
#        128416
#        130927
#        136334
#        154245
#        161636
#        167355
#        170175
#        180723
#        184972
#        192260
#        202188
#        206754
#        210782
#
# Disc length: 2880 seconds
#
# Revision: 0
# Processed by: cddbd v1.5.2PL0 Copyright (c) Steve Scherf et al.
# Submitted via: ExactAudioCopy v0.95b4
#
DISCID=9b0b3e1f
DTITLE=Steve Kaufman - Bluegrass Guitar Solos - 1.1
DYEAR=1991
DGENRE=Bluegrass
TTITLE0=Introduction and Tuning
TTITLE1=Arkansas Traveler - with band
TTITLE2=Arkansas Traveler - beginner version - talk
TTITLE3=Arkansas Traveler - beginner version - pick technique
TTITLE4=Arkansas Traveler - beginner version - 1st and 2nd ending expl
TTITLE4=anation
TTITLE5=Arkansas Traveler - beginner version - played
TTITLE6=Arkansas Traveler - intermediate version - fingerings and tech
TTITLE6=nique
TTITLE7=Arkansas Traveler - intermediate version - played
TTITLE8=Arkansas Traveler - advanced version - fingerings and techniqu
TTITLE8=es
TTITLE9=Arkansas Traveler - advanced version - crosspicking
TTITLE10=Arkansas Traveler - advanced version - more fingerings and te
TTITLE10=chniques
TTITLE11=Arkansas Traveler - advanced version - played
TTITLE12=Big Sandy River - with band
TTITLE13=Big Sandy River - beginner version -fingerings and techniques
TTITLE14=Big Sandy River - beginner version -played
TTITLE15=Big Sandy River - beginner version -2nd part fingerings
TTITLE16=Big Sandy River - beginner version -rhythm technique
TTITLE17=Big Sandy River - intermediate version - talk
TTITLE18=Big Sandy River - intermediate version - fingerings and techn
TTITLE18=iques
TTITLE19=Big Sandy River - intermediate version -played
TTITLE20=Big Sandy River - intermediate version - more fingerings and 
TTITLE20=techniques
TTITLE21=Big Sandy River - advanced version - fingerings and technique
TTITLE21=s
TTITLE22=Big Sandy River - advanced version - played
TTITLE23=Big Sandy River - advanced version - endings
TTITLE24=Bill Cheatham - with band
TTITLE25=Bill Cheatham - beginner version - 2nd part fingerings
TTITLE26=Bill Cheatham - beginner version - played
TTITLE27=Bill Cheatham - intermediate version - fingerings and techniq
TTITLE27=ues
TTITLE28=Bill Cheatham - intermediate version - played
TTITLE29=Bill Cheatham - advanced version - fingerings and techniques
TTITLE30=Bill Cheatham - advanced version - played
EXTD=
EXTT0=
EXTT1=
EXTT2=
EXTT3=
EXTT4=
EXTT5=
EXTT6=
EXTT7=
EXTT8=
EXTT9=
EXTT10=
EXTT11=
EXTT12=
EXTT13=
EXTT14=
EXTT15=
EXTT16=
EXTT17=
EXTT18=
EXTT19=
EXTT20=
EXTT21=
EXTT22=
EXTT23=
EXTT24=
EXTT25=
EXTT26=
EXTT27=
EXTT28=
EXTT29=
EXTT30=
PLAYORDER=
